<mxfile host="app.diagrams.net" agent="Mozilla/5.0 (Windows NT 10.0; Win64; x64) AppleWebKit/537.36 (KHTML, like Gecko) Chrome/131.0.0.0 Safari/537.36 Edg/131.0.0.0" version="26.0.5">
  <diagram name="第 1 页" id="8uf2Bosff-8AVO5MdUJH">
    <mxGraphModel dx="810" dy="519" grid="1" gridSize="10" guides="1" tooltips="1" connect="1" arrows="1" fold="1" page="1" pageScale="1" pageWidth="827" pageHeight="1169" math="0" shadow="0">
      <root>
        <mxCell id="0" />
        <mxCell id="1" parent="0" />
        <mxCell id="IlZufm3pC15W0L3yMH54-1" value="" style="rounded=0;whiteSpace=wrap;html=1;fillColor=#fff2cc;strokeColor=#d6b656;" vertex="1" parent="1">
          <mxGeometry x="260" y="240" width="340" height="30" as="geometry" />
        </mxCell>
        <mxCell id="IlZufm3pC15W0L3yMH54-4" value="" style="rounded=0;whiteSpace=wrap;html=1;fillColor=#0050ef;strokeColor=#001DBC;fontColor=#ffffff;" vertex="1" parent="1">
          <mxGeometry x="200" y="240" width="40" height="30" as="geometry" />
        </mxCell>
        <mxCell id="IlZufm3pC15W0L3yMH54-3" value="" style="rounded=0;whiteSpace=wrap;html=1;fillColor=#dae8fc;strokeColor=#6c8ebf;" vertex="1" parent="1">
          <mxGeometry x="120" y="240" width="80" height="30" as="geometry" />
        </mxCell>
        <mxCell id="IlZufm3pC15W0L3yMH54-2" value="sw header" style="rounded=0;whiteSpace=wrap;html=1;fillColor=#dae8fc;strokeColor=#6c8ebf;" vertex="1" parent="1">
          <mxGeometry x="120" y="170" width="140" height="30" as="geometry" />
        </mxCell>
        <mxCell id="IlZufm3pC15W0L3yMH54-5" value="rem1" style="rounded=0;whiteSpace=wrap;html=1;fillColor=#1ba1e2;strokeColor=#006EAF;fontColor=#ffffff;" vertex="1" parent="1">
          <mxGeometry x="200" y="120" width="40" height="30" as="geometry" />
        </mxCell>
        <mxCell id="IlZufm3pC15W0L3yMH54-7" value="" style="endArrow=classic;html=1;rounded=0;" edge="1" parent="1" target="IlZufm3pC15W0L3yMH54-3">
          <mxGeometry width="50" height="50" relative="1" as="geometry">
            <mxPoint x="160" y="220" as="sourcePoint" />
            <mxPoint x="320" y="250" as="targetPoint" />
          </mxGeometry>
        </mxCell>
        <mxCell id="IlZufm3pC15W0L3yMH54-8" value="" style="shape=curlyBracket;whiteSpace=wrap;html=1;rounded=1;labelPosition=left;verticalLabelPosition=middle;align=right;verticalAlign=middle;rotation=-90;" vertex="1" parent="1">
          <mxGeometry x="150" y="170" width="20" height="80" as="geometry" />
        </mxCell>
        <mxCell id="IlZufm3pC15W0L3yMH54-9" value="" style="shape=curlyBracket;whiteSpace=wrap;html=1;rounded=1;flipH=1;labelPosition=right;verticalLabelPosition=middle;align=left;verticalAlign=middle;rotation=-90;" vertex="1" parent="1">
          <mxGeometry x="220" y="130" width="20" height="60" as="geometry" />
        </mxCell>
        <mxCell id="IlZufm3pC15W0L3yMH54-10" value="" style="rounded=0;whiteSpace=wrap;html=1;fillColor=#0050ef;strokeColor=#001DBC;fontColor=#ffffff;" vertex="1" parent="1">
          <mxGeometry x="240" y="120" width="20" height="30" as="geometry" />
        </mxCell>
        <mxCell id="IlZufm3pC15W0L3yMH54-6" value="rem2" style="rounded=0;whiteSpace=wrap;html=1;opacity=60;" vertex="1" parent="1">
          <mxGeometry x="240" y="120" width="40" height="30" as="geometry" />
        </mxCell>
        <mxCell id="IlZufm3pC15W0L3yMH54-11" value="SOS (HW encoded bitstream)" style="rounded=0;whiteSpace=wrap;html=1;fillColor=#ffe6cc;strokeColor=#d79b00;" vertex="1" parent="1">
          <mxGeometry x="260" y="50" width="340" height="30" as="geometry" />
        </mxCell>
        <mxCell id="IlZufm3pC15W0L3yMH54-12" value="rem1" style="rounded=0;whiteSpace=wrap;html=1;fillColor=#0050ef;strokeColor=#001DBC;fontColor=#ffffff;" vertex="1" parent="1">
          <mxGeometry x="200" y="50" width="40" height="30" as="geometry" />
        </mxCell>
        <mxCell id="IlZufm3pC15W0L3yMH54-13" value="rem2" style="rounded=0;whiteSpace=wrap;html=1;fillColor=#1ba1e2;strokeColor=#006EAF;fontColor=#ffffff;" vertex="1" parent="1">
          <mxGeometry x="240" y="50" width="20" height="30" as="geometry" />
        </mxCell>
        <mxCell id="IlZufm3pC15W0L3yMH54-14" value="" style="shape=curlyBracket;whiteSpace=wrap;html=1;rounded=1;flipH=1;labelPosition=right;verticalLabelPosition=middle;align=left;verticalAlign=middle;rotation=-90;" vertex="1" parent="1">
          <mxGeometry x="220" y="80" width="20" height="60" as="geometry" />
        </mxCell>
        <mxCell id="IlZufm3pC15W0L3yMH54-15" value="swreg" style="text;html=1;align=center;verticalAlign=middle;whiteSpace=wrap;rounded=0;" vertex="1" parent="1">
          <mxGeometry x="280" y="120" width="60" height="30" as="geometry" />
        </mxCell>
        <mxCell id="IlZufm3pC15W0L3yMH54-16" value="" style="endArrow=classic;html=1;rounded=0;entryX=0.75;entryY=1;entryDx=0;entryDy=0;exitX=0.1;exitY=0.5;exitDx=0;exitDy=0;exitPerimeter=0;" edge="1" parent="1" source="IlZufm3pC15W0L3yMH54-14" target="IlZufm3pC15W0L3yMH54-12">
          <mxGeometry width="50" height="50" relative="1" as="geometry">
            <mxPoint x="270" y="300" as="sourcePoint" />
            <mxPoint x="320" y="250" as="targetPoint" />
          </mxGeometry>
        </mxCell>
        <mxCell id="IlZufm3pC15W0L3yMH54-17" value="" style="endArrow=none;html=1;rounded=0;entryX=1;entryY=0.25;entryDx=0;entryDy=0;" edge="1" parent="1">
          <mxGeometry width="50" height="50" relative="1" as="geometry">
            <mxPoint x="260" y="324" as="sourcePoint" />
            <mxPoint x="260" y="271.5" as="targetPoint" />
          </mxGeometry>
        </mxCell>
        <mxCell id="IlZufm3pC15W0L3yMH54-18" value="" style="endArrow=none;html=1;rounded=0;entryX=1;entryY=0.25;entryDx=0;entryDy=0;" edge="1" parent="1">
          <mxGeometry width="50" height="50" relative="1" as="geometry">
            <mxPoint x="200" y="322.5" as="sourcePoint" />
            <mxPoint x="200" y="270" as="targetPoint" />
          </mxGeometry>
        </mxCell>
        <mxCell id="IlZufm3pC15W0L3yMH54-19" value="" style="endArrow=classic;startArrow=classic;html=1;rounded=0;" edge="1" parent="1">
          <mxGeometry width="50" height="50" relative="1" as="geometry">
            <mxPoint x="200" y="296" as="sourcePoint" />
            <mxPoint x="260" y="296" as="targetPoint" />
            <Array as="points">
              <mxPoint x="230" y="296" />
            </Array>
          </mxGeometry>
        </mxCell>
        <mxCell id="IlZufm3pC15W0L3yMH54-20" value="startoffset" style="text;html=1;align=center;verticalAlign=middle;whiteSpace=wrap;rounded=0;" vertex="1" parent="1">
          <mxGeometry x="200" y="300" width="60" height="30" as="geometry" />
        </mxCell>
        <mxCell id="IlZufm3pC15W0L3yMH54-21" value="" style="shape=curlyBracket;whiteSpace=wrap;html=1;rounded=1;flipH=1;labelPosition=right;verticalLabelPosition=middle;align=left;verticalAlign=middle;rotation=90;" vertex="1" parent="1">
          <mxGeometry x="390" y="-110" width="20" height="400" as="geometry" />
        </mxCell>
        <mxCell id="IlZufm3pC15W0L3yMH54-22" value="" style="shape=flexArrow;endArrow=classic;html=1;rounded=0;" edge="1" parent="1">
          <mxGeometry width="50" height="50" relative="1" as="geometry">
            <mxPoint x="400" y="102" as="sourcePoint" />
            <mxPoint x="400" y="220" as="targetPoint" />
          </mxGeometry>
        </mxCell>
        <mxCell id="IlZufm3pC15W0L3yMH54-23" value="" style="rounded=0;whiteSpace=wrap;html=1;fillColor=#1ba1e2;strokeColor=#006EAF;fontColor=#ffffff;" vertex="1" parent="1">
          <mxGeometry x="240" y="240" width="20" height="30" as="geometry" />
        </mxCell>
        <mxCell id="IlZufm3pC15W0L3yMH54-24" value="" style="shape=curlyBracket;whiteSpace=wrap;html=1;rounded=1;flipH=1;labelPosition=right;verticalLabelPosition=middle;align=left;verticalAlign=middle;rotation=-90;" vertex="1" parent="1">
          <mxGeometry x="390" y="30" width="20" height="400" as="geometry" />
        </mxCell>
        <mxCell id="IlZufm3pC15W0L3yMH54-25" value="" style="endArrow=none;dashed=1;html=1;rounded=0;exitX=0.5;exitY=0;exitDx=0;exitDy=0;entryX=0;entryY=1;entryDx=0;entryDy=0;" edge="1" parent="1" source="IlZufm3pC15W0L3yMH54-24" target="IlZufm3pC15W0L3yMH54-5">
          <mxGeometry width="50" height="50" relative="1" as="geometry">
            <mxPoint x="150" y="220" as="sourcePoint" />
            <mxPoint x="200" y="170" as="targetPoint" />
          </mxGeometry>
        </mxCell>
        <mxCell id="IlZufm3pC15W0L3yMH54-26" value="" style="endArrow=none;html=1;rounded=0;" edge="1" parent="1">
          <mxGeometry width="50" height="50" relative="1" as="geometry">
            <mxPoint x="200" y="170" as="sourcePoint" />
            <mxPoint x="140" y="110" as="targetPoint" />
          </mxGeometry>
        </mxCell>
        <mxCell id="IlZufm3pC15W0L3yMH54-27" value="8B alignment" style="text;html=1;align=center;verticalAlign=middle;whiteSpace=wrap;rounded=0;" vertex="1" parent="1">
          <mxGeometry x="70" y="82" width="90" height="30" as="geometry" />
        </mxCell>
      </root>
    </mxGraphModel>
  </diagram>
</mxfile>
